<svg width="78" height="24" viewBox="0 0 78 24" fill="none" xmlns="http://www.w3.org/2000/svg">
<path d="M11.2287 12.2425C10.9916 12.2425 10.7598 12.1671 10.5335 12.0162C10.3179 11.8653 10.2102 11.6174 10.2102 11.2725C10.2102 10.9923 10.2802 10.7659 10.4203 10.5935C10.5605 10.421 10.7221 10.2971 10.9053 10.2216C11.0886 10.1354 11.2502 10.0923 11.3903 10.0923C11.5305 10.0923 11.6867 10.1246 11.8592 10.1893C12.0424 10.254 12.1987 10.3672 12.328 10.5288C12.4574 10.6797 12.522 10.906 12.522 11.2078C12.522 11.5096 12.3927 11.7575 12.134 11.9515C11.8754 12.1455 11.5736 12.2425 11.2287 12.2425Z" fill="#FFB800"/>
<path d="M73.2287 12.2425C72.9916 12.2425 72.7598 12.1671 72.5335 12.0162C72.3179 11.8653 72.2102 11.6174 72.2102 11.2725C72.2102 10.9923 72.2802 10.7659 72.4203 10.5935C72.5605 10.421 72.7221 10.2971 72.9053 10.2216C73.0886 10.1354 73.2502 10.0923 73.3903 10.0923C73.5305 10.0923 73.6867 10.1246 73.8592 10.1893C74.0424 10.254 74.1987 10.3672 74.328 10.5288C74.4574 10.6797 74.522 10.906 74.522 11.2078C74.522 11.5096 74.3927 11.7575 74.134 11.9515C73.8754 12.1455 73.5736 12.2425 73.2287 12.2425Z" fill="#FFB800"/>
<path d="M6.7872 13.0574H8.5512V22.7678L1.764 16.5854V22.4486H0V12.7382L6.7872 18.9206V13.0574ZM12.3296 13.2254V22.5998H10.5656V13.2254H12.3296ZM16.1031 17.6102L20.0175 13.2254H22.2687L18.1863 17.6102L22.2519 22.5998H20.0175L16.1031 17.6102V22.5998H14.3391V13.2254H16.1031V17.6102ZM30.1095 22.5998L29.5047 21.2726H25.5063L24.9015 22.5998H22.9359L27.5055 12.9062L32.0751 22.5998H30.1095ZM26.2791 19.5422H28.7319L27.5055 16.8206L26.2791 19.5422ZM38.6203 13.0574H41.9131C44.6347 13.0574 46.8187 14.939 46.8187 17.7446C46.8187 20.5502 44.6347 22.4486 41.9131 22.4486H38.6203V13.0574ZM40.3843 14.7038V20.8022H41.8627C43.6267 20.8022 45.0715 19.4414 45.0715 17.7446C45.0715 16.0646 43.6267 14.7038 41.8627 14.7038H40.3843ZM58.8328 17.7446C58.8328 20.5166 56.4976 22.7678 53.5912 22.7678C50.6848 22.7678 48.3328 20.5166 48.3328 17.7446C48.3328 14.9726 50.6848 12.7382 53.5912 12.7382C56.4976 12.7382 58.8328 14.9726 58.8328 17.7446ZM57.0856 17.7446C57.0856 15.8966 55.5232 14.4182 53.5912 14.4182C51.6424 14.4182 50.08 15.8966 50.08 17.7446C50.08 19.5926 51.6424 21.0878 53.5912 21.0878C55.5232 21.0878 57.0856 19.5926 57.0856 17.7446ZM70.6956 12.8894V22.5998H68.9316V16.8542L65.7732 19.8446L62.6148 16.8542V22.5998H60.8508V12.8894L65.7732 17.4254L70.6956 12.8894ZM74.4765 13.2254V22.5998H72.7125V13.2254H74.4765Z" fill="white"/>
</svg>
